{"asset":{"version":"2.0","generator":"babylon.js glTF exporter for 3dsmax 2019 v20201123.8"},"scene":0,"scenes":[{"nodes":[0,1]}],"nodes":[{"mesh":0,"translation":[-0.599999964,-0.75,1.3],"rotation":[0.6830127,0.1830127,-0.183012709,0.683012664],"name":"Plane002"},{"name":"Default light"}],"meshes":[{"primitives":[{"attributes":{"POSITION":1,"NORMAL":2,"TEXCOORD_0":3},"indices":0,"material":0}],"name":"Plane002"}],"accessors":[{"bufferView":0,"componentType":5123,"count":6,"type":"SCALAR","name":"accessorIndices"},{"bufferView":1,"componentType":5126,"count":6,"max":[0.799999952,0.0,0.799999952],"min":[-0.799999952,0.0,-0.799999952],"type":"VEC3","name":"accessorPositions"},{"bufferView":1,"byteOffset":72,"componentType":5126,"count":6,"type":"VEC3","name":"accessorNormals"},{"bufferView":2,"componentType":5126,"count":6,"type":"VEC2","name":"accessorUVs"}],"bufferViews":[{"buffer":0,"byteLength":12,"name":"bufferViewScalar"},{"buffer":0,"byteOffset":12,"byteLength":144,"byteStride":12,"name":"bufferViewFloatVec3"},{"buffer":0,"byteOffset":156,"byteLength":48,"byteStride":8,"name":"bufferViewFloatVec2"}],"buffers":[{"uri":"test01.bin","byteLength":204}],"materials":[{"pbrMetallicRoughness":{"baseColorFactor":[0.588,0.588,0.588,1.0],"metallicFactor":0.0,"roughnessFactor":0.450053632},"name":"Materia"}]}